<svg width="24" height="24" viewBox="0 0 24 24" fill="none" xmlns="http://www.w3.org/2000/svg">
<path d="M13.6965 10.0301V9.0197C14.1795 8.7242 14.6973 8.50257 15.2499 8.35482C15.8025 8.20707 16.3692 8.13319 16.95 8.13319C17.2824 8.13319 17.6013 8.15891 17.9067 8.21033C18.2127 8.26175 18.5283 8.3349 18.8535 8.42978V9.41624C18.5397 9.29529 18.2337 9.21127 17.9355 9.16419C17.6373 9.11784 17.3088 9.09466 16.95 9.09466C16.368 9.09466 15.8004 9.17361 15.2472 9.3315C14.6934 9.48939 14.1765 9.72224 13.6965 10.0301ZM13.6965 15.964V14.9102C14.1567 14.6154 14.6715 14.3945 15.2409 14.2475C15.8103 14.099 16.38 14.0248 16.95 14.0248C17.2824 14.0248 17.6013 14.0505 17.9067 14.1019C18.2127 14.1541 18.5283 14.2272 18.8535 14.3214V15.3078C18.5397 15.1869 18.2337 15.1028 17.9355 15.0558C17.6373 15.0094 17.3088 14.9862 16.95 14.9862C16.368 14.9862 15.8004 15.071 15.2472 15.2405C14.6934 15.4107 14.1765 15.6518 13.6965 15.964ZM13.6965 13.0177V11.9649C14.1795 11.6694 14.6973 11.4482 15.2499 11.3012C15.8019 11.1534 16.3686 11.0795 16.95 11.0795C17.2824 11.0795 17.6013 11.1049 17.9067 11.1556C18.2127 11.2077 18.5283 11.2812 18.8535 11.3761V12.3615C18.5397 12.2405 18.2337 12.1569 17.9355 12.1105C17.6373 12.0634 17.3088 12.0399 16.95 12.0399C16.368 12.0399 15.8004 12.1261 15.2472 12.2985C14.6934 12.4701 14.1765 12.7099 13.6965 13.0177ZM7.05 17.033C7.836 17.033 8.6001 17.142 9.3423 17.36C10.0851 17.578 10.821 17.9329 11.55 18.4247V7.76599C10.9002 7.20613 10.1841 6.78605 9.4017 6.50576C8.6199 6.22619 7.836 6.08641 7.05 6.08641C6.51 6.08641 6.0372 6.12515 5.6316 6.20265C5.226 6.28087 4.776 6.42573 4.2816 6.63721C4.1424 6.69298 4.044 6.77301 3.9864 6.87731C3.9288 6.98233 3.9 7.09749 3.9 7.22279V17.0167C3.9 17.2123 3.9576 17.355 4.0728 17.4448C4.1886 17.5353 4.3155 17.5462 4.4535 17.4774C4.7823 17.3434 5.1624 17.2358 5.5938 17.1547C6.0246 17.0736 6.51 17.033 7.05 17.033ZM12.45 18.4247C13.179 17.9329 13.9149 17.578 14.6577 17.36C15.3999 17.1428 16.164 17.0341 16.95 17.0341C17.49 17.0341 17.9754 17.0743 18.4062 17.1547C18.8376 17.2358 19.2177 17.343 19.5465 17.4763C19.6845 17.5458 19.8114 17.5353 19.9272 17.4448C20.0424 17.3542 20.1 17.2116 20.1 17.0167V7.22279C20.1 7.09749 20.0712 6.98595 20.0136 6.88817C19.956 6.7904 19.8579 6.70711 19.7193 6.6383C19.2243 6.42609 18.774 6.28123 18.3684 6.20374C17.9628 6.12552 17.49 6.08641 16.95 6.08641C16.164 6.08641 15.3801 6.22619 14.5983 6.50576C13.8159 6.78605 13.0998 7.20613 12.45 7.76599V18.4247ZM12 20C11.268 19.396 10.482 18.9317 9.642 18.6072C8.802 18.282 7.938 18.1194 7.05 18.1194C6.582 18.1194 6.1218 18.1669 5.6694 18.2618C5.2176 18.3566 4.7778 18.5087 4.35 18.718C4.0236 18.8752 3.717 18.8278 3.4302 18.5757C3.1434 18.3237 3 17.9753 3 17.5306V7.03049C3 6.76179 3.0585 6.51228 3.1755 6.28196C3.2925 6.05237 3.4566 5.8923 3.6678 5.80177C4.1964 5.52075 4.7463 5.31687 5.3175 5.19012C5.8887 5.06337 6.4662 5 7.05 5C7.932 5 8.7918 5.15318 9.6294 5.45955C10.4676 5.76592 11.2578 6.21134 12 6.79583C12.7422 6.21134 13.5324 5.76592 14.3706 5.45955C15.2088 5.15318 16.0686 5 16.95 5C17.5338 5 18.1113 5.06337 18.6825 5.19012C19.2537 5.31687 19.8036 5.52075 20.3322 5.80177C20.5434 5.8923 20.7075 6.05237 20.8245 6.28196C20.9415 6.51228 21 6.76179 21 7.03049V17.5306C21 17.9753 20.8452 18.3164 20.5356 18.554C20.2254 18.793 19.8954 18.8336 19.5456 18.6757C19.1292 18.4801 18.7038 18.3389 18.2694 18.252C17.835 18.1636 17.3952 18.1194 16.95 18.1194C16.062 18.1194 15.198 18.282 14.358 18.6072C13.518 18.9317 12.732 19.396 12 20Z" fill="url(#paint0_linear_650_2739)"/>
<defs>
<linearGradient id="paint0_linear_650_2739" x1="12.7841" y1="17.75" x2="12.7841" y2="5" gradientUnits="userSpaceOnUse">
<stop stop-color="#15C5CE"/>
<stop offset="0.96" stop-color="#0C677C"/>
</linearGradient>
</defs>
</svg>
