<svg width="25" height="25" viewBox="0 0 25 25" fill="none" xmlns="http://www.w3.org/2000/svg">
<mask id="path-1-inside-1_464_854" fill="white">
<path d="M14.5735 9.66419V8.62689C15.1638 8.32351 15.7967 8.09597 16.4721 7.94428C17.1475 7.79259 17.8401 7.71675 18.55 7.71675C18.9563 7.71675 19.346 7.74314 19.7193 7.79594C20.0933 7.84873 20.479 7.92383 20.8765 8.02124V9.03401C20.493 8.90983 20.119 8.82357 19.7545 8.77524C19.39 8.72765 18.9885 8.70385 18.55 8.70385C17.8387 8.70385 17.1449 8.7849 16.4688 8.94701C15.7919 9.10911 15.1602 9.34817 14.5735 9.66419ZM14.5735 15.7564V14.6745C15.136 14.3718 15.7652 14.145 16.4611 13.9941C17.157 13.8416 17.8533 13.7654 18.55 13.7654C18.9563 13.7654 19.346 13.7918 19.7193 13.8446C20.0933 13.8982 20.479 13.9733 20.8765 14.0699V15.0827C20.493 14.9585 20.119 14.8723 19.7545 14.8239C19.39 14.7763 18.9885 14.7525 18.55 14.7525C17.8387 14.7525 17.1449 14.8395 16.4688 15.0135C15.7919 15.1883 15.1602 15.4359 14.5735 15.7564ZM14.5735 12.7315V11.6507C15.1638 11.3473 15.7967 11.1201 16.4721 10.9692C17.1468 10.8175 17.8394 10.7416 18.55 10.7416C18.9563 10.7416 19.346 10.7677 19.7193 10.8197C20.0933 10.8733 20.479 10.9487 20.8765 11.0461V12.0578C20.493 11.9336 20.119 11.8477 19.7545 11.8001C19.39 11.7518 18.9885 11.7276 18.55 11.7276C17.8387 11.7276 17.1449 11.8161 16.4688 11.9931C15.7919 12.1693 15.1602 12.4155 14.5735 12.7315ZM6.45 16.8539C7.41067 16.8539 8.34457 16.9658 9.2517 17.1896C10.1596 17.4135 11.059 17.7778 11.95 18.2827V7.33975C11.1558 6.76496 10.2806 6.33368 9.3243 6.04591C8.36877 5.75889 7.41067 5.61538 6.45 5.61538C5.79 5.61538 5.21213 5.65516 4.7164 5.73472C4.22067 5.81503 3.67067 5.96375 3.0664 6.18087C2.89627 6.23813 2.776 6.32029 2.7056 6.42737C2.6352 6.53519 2.6 6.65342 2.6 6.78206V16.8372C2.6 17.0379 2.6704 17.1844 2.8112 17.2766C2.95273 17.3696 3.10783 17.3807 3.2765 17.3101C3.67837 17.1725 4.14293 17.0621 4.6702 16.9788C5.19673 16.8955 5.79 16.8539 6.45 16.8539ZM13.05 18.2827C13.941 17.7778 14.8404 17.4135 15.7483 17.1896C16.6554 16.9666 17.5893 16.855 18.55 16.855C19.21 16.855 19.8033 16.8963 20.3298 16.9788C20.8571 17.0621 21.3216 17.1722 21.7235 17.309C21.8922 17.3804 22.0473 17.3696 22.1888 17.2766C22.3296 17.1837 22.4 17.0372 22.4 16.8372V6.78206C22.4 6.65342 22.3648 6.53891 22.2944 6.43852C22.224 6.33814 22.1041 6.25263 21.9347 6.18199C21.3297 5.96412 20.7793 5.8154 20.2836 5.73584C19.7879 5.65553 19.21 5.61538 18.55 5.61538C17.5893 5.61538 16.6312 5.75889 15.6757 6.04591C14.7194 6.33368 13.8442 6.76496 13.05 7.33975V18.2827ZM12.5 19.9C11.6053 19.2799 10.6447 18.8032 9.618 18.4701C8.59133 18.1362 7.53533 17.9693 6.45 17.9693C5.878 17.9693 5.31553 18.018 4.7626 18.1154C4.2104 18.2128 3.67287 18.369 3.15 18.5839C2.75107 18.7452 2.37633 18.6965 2.0258 18.4377C1.67527 18.179 1.5 17.8213 1.5 17.3648V6.58464C1.5 6.30877 1.5715 6.0526 1.7145 5.81614C1.8575 5.58043 2.05807 5.4161 2.3162 5.32315C2.96227 5.03464 3.63437 4.82532 4.3325 4.69519C5.03063 4.56506 5.73647 4.5 6.45 4.5C7.528 4.5 8.57887 4.65727 9.6026 4.9718C10.6271 5.28634 11.5929 5.74364 12.5 6.34372C13.4071 5.74364 14.3729 5.28634 15.3974 4.9718C16.4219 4.65727 17.4727 4.5 18.55 4.5C19.2635 4.5 19.9694 4.56506 20.6675 4.69519C21.3656 4.82532 22.0377 5.03464 22.6838 5.32315C22.9419 5.4161 23.1425 5.58043 23.2855 5.81614C23.4285 6.0526 23.5 6.30877 23.5 6.58464V17.3648C23.5 17.8213 23.3108 18.1715 22.9324 18.4154C22.5533 18.6608 22.1499 18.7025 21.7224 18.5404C21.2135 18.3396 20.6935 18.1946 20.1626 18.1054C19.6317 18.0146 19.0941 17.9693 18.55 17.9693C17.4647 17.9693 16.4087 18.1362 15.382 18.4701C14.3553 18.8032 13.3947 19.2799 12.5 19.9Z"/>
</mask>
<path d="M14.5735 9.66419H-62.4265V138.603L51.0905 77.4544L14.5735 9.66419ZM14.5735 8.62689L-20.6223 -59.8585L-62.4265 -38.3747V8.62689H14.5735ZM18.55 7.71675V84.7167V7.71675ZM19.7193 7.79594L8.93582 84.0371L8.94619 84.0386L8.95655 84.04L19.7193 7.79594ZM20.8765 8.02124H97.8765V-52.3866L39.205 -66.7656L20.8765 8.02124ZM20.8765 9.03401L-2.84196 82.29L97.8765 114.9V9.03401H20.8765ZM19.7545 8.77524L29.8771 -67.5565L29.8005 -67.5666L29.724 -67.5766L19.7545 8.77524ZM16.4688 8.94701L34.4023 83.8295L34.4115 83.8273L34.4207 83.8251L16.4688 8.94701ZM14.5735 15.7564H-62.4265V145.56L51.4881 83.3308L14.5735 15.7564ZM14.5735 14.6745L-21.9109 -53.1333L-62.4265 -31.3336V14.6745H14.5735ZM16.4611 13.9941L32.7828 89.2443L32.8596 89.2277L32.9363 89.2109L16.4611 13.9941ZM19.7193 13.8446L30.6306 -62.3784L30.5667 -62.3875L30.5028 -62.3966L19.7193 13.8446ZM20.8765 14.0699H97.8765V-46.4478L39.0729 -60.7491L20.8765 14.0699ZM20.8765 15.0827L-2.84196 88.3386L97.8765 120.949V15.0827H20.8765ZM19.7545 14.8239L29.8771 -61.5078L29.8005 -61.518L29.724 -61.528L19.7545 14.8239ZM16.4688 15.0135L-2.72141 -59.5568L-2.75007 -59.5494L-2.77873 -59.542L16.4688 15.0135ZM14.5735 12.7315H-62.4265V141.671L51.0905 80.5217L14.5735 12.7315ZM14.5735 11.6507L-20.6223 -56.8347L-62.4265 -35.3509V11.6507H14.5735ZM16.4721 10.9692L33.2668 86.1153L33.3149 86.1045L33.363 86.0937L16.4721 10.9692ZM19.7193 10.8197L30.6306 -65.4033L30.4923 -65.4231L30.3538 -65.4424L19.7193 10.8197ZM20.8765 11.0461H97.8765V-49.3617L39.205 -63.7407L20.8765 11.0461ZM20.8765 12.0578L-2.84196 85.3137L97.8765 117.924V12.0578H20.8765ZM19.7545 11.8001L9.63193 88.1319L9.70847 88.142L9.78503 88.152L19.7545 11.8001ZM16.4688 11.9931L35.8698 86.5089L35.918 86.4963L35.9662 86.4837L16.4688 11.9931ZM9.2517 17.1896L-9.19352 91.9477L-9.1865 91.9495L-9.17947 91.9512L9.2517 17.1896ZM11.95 18.2827L-26.0116 85.2746L88.95 150.419V18.2827H11.95ZM11.95 7.33975H88.95V-31.983L57.0948 -55.0377L11.95 7.33975ZM9.3243 6.04591L31.5128 -67.6879L31.4943 -67.6934L31.4758 -67.699L9.3243 6.04591ZM4.7164 5.73472L-7.48568 -70.2923L-7.54125 -70.2834L-7.59681 -70.2744L4.7164 5.73472ZM3.0664 6.18087L27.6262 79.1591L28.3679 78.9095L29.1043 78.6448L3.0664 6.18087ZM2.7056 6.42737L-61.6339 -35.8743L-61.701 -35.7722L-61.7677 -35.67L2.7056 6.42737ZM2.8112 17.2766L45.079 -47.0851L45.0371 -47.1126L44.9952 -47.1401L2.8112 17.2766ZM3.2765 17.3101L-21.6608 -55.54L-24.0954 -54.7066L-26.469 -53.7125L3.2765 17.3101ZM4.6702 16.9788L16.6834 93.0359L16.6915 93.0347L16.6997 93.0334L4.6702 16.9788ZM13.05 18.2827H-63.95V150.419L51.0116 85.2746L13.05 18.2827ZM15.7483 17.1896L-2.63914 -57.5827L-2.66101 -57.5773L-2.68287 -57.5719L15.7483 17.1896ZM20.3298 16.9788L32.343 -59.0783L32.2987 -59.0853L32.2545 -59.0922L20.3298 16.9788ZM21.7235 17.309L51.7347 -53.6017L49.1732 -54.6858L46.5401 -55.5823L21.7235 17.309ZM22.1888 17.2766L64.4566 81.6384L64.5334 81.588L64.61 81.5374L22.1888 17.2766ZM21.9347 6.18199L51.5705 -64.8864L49.814 -65.6189L48.0235 -66.2637L21.9347 6.18199ZM20.2836 5.73584L7.97039 81.7449L8.02595 81.7539L8.08152 81.7629L20.2836 5.73584ZM15.6757 6.04591L-6.47582 -67.699L-6.49433 -67.6934L-6.51283 -67.6879L15.6757 6.04591ZM13.05 7.33975L-32.0948 -55.0377L-63.95 -31.983V7.33975H13.05ZM12.5 19.9L-31.3657 83.1835L12.5 113.59L56.3657 83.1835L12.5 19.9ZM9.618 18.4701L-14.1947 91.6955L-14.1707 91.7033L-14.1467 91.711L9.618 18.4701ZM4.7626 18.1154L-8.59667 -57.7169L-8.60527 -57.7153L-8.61387 -57.7138L4.7626 18.1154ZM3.15 18.5839L32.0221 89.9659L32.2217 89.8852L32.4209 89.8033L3.15 18.5839ZM1.5 17.3648H78.5H1.5ZM1.7145 5.81614L-64.1182 -34.122L-64.1461 -34.0761L-64.1739 -34.0301L1.7145 5.81614ZM2.3162 5.32315L28.4026 77.7697L31.0977 76.7992L33.7133 75.6312L2.3162 5.32315ZM9.6026 4.9718L-13.0119 78.576L-13.0045 78.5783L-12.9971 78.5806L9.6026 4.9718ZM12.5 6.34372L-29.9821 70.5642L12.5 98.6663L54.9821 70.5642L12.5 6.34372ZM22.6838 5.32315L-8.71331 75.6312L-6.09772 76.7992L-3.40258 77.7697L22.6838 5.32315ZM23.2855 5.81614L89.1739 -34.0301L89.1461 -34.0761L89.1182 -34.122L23.2855 5.81614ZM22.9324 18.4154L-18.7832 -46.3056L-18.8443 -46.2662L-18.9053 -46.2267L22.9324 18.4154ZM21.7224 18.5404L-6.53396 90.1684L-6.05631 90.3568L-5.57619 90.5389L21.7224 18.5404ZM20.1626 18.1054L7.19403 94.0054L7.29736 94.0231L7.40074 94.0404L20.1626 18.1054ZM15.382 18.4701L39.1467 91.711L39.1707 91.7033L39.1947 91.6955L15.382 18.4701ZM91.5735 9.66419V8.62689H-62.4265V9.66419H91.5735ZM49.7693 77.1123C44.314 79.9159 38.7607 81.8565 33.3455 83.0728L-0.401347 -67.1842C-7.16728 -65.6646 -13.9863 -63.2689 -20.6223 -59.8585L49.7693 77.1123ZM33.3455 83.0728C28.3429 84.1963 23.3713 84.7167 18.55 84.7167V-69.2833C12.3089 -69.2833 5.95213 -68.6111 -0.401347 -67.1842L33.3455 83.0728ZM18.55 84.7167C15.6243 84.7167 12.398 84.5268 8.93582 84.0371L30.5028 -68.4452C26.2941 -69.0405 22.2882 -69.2833 18.55 -69.2833V84.7167ZM8.95655 84.04C6.58568 83.7054 4.44215 83.2723 2.54805 82.8081L39.205 -66.7656C36.5159 -67.4246 33.6009 -68.0079 30.482 -68.4482L8.95655 84.04ZM-56.1235 8.02124V9.03401H97.8765V8.02124H-56.1235ZM44.595 -64.2219C40.2015 -65.6444 35.2749 -66.8407 29.8771 -67.5565L9.63193 85.107C4.96304 84.4878 0.784384 83.4641 -2.84196 82.29L44.595 -64.2219ZM29.724 -67.5766C25.4957 -68.1287 21.7074 -68.2962 18.55 -68.2962V85.7038C16.2696 85.7038 13.2844 85.584 9.78503 85.1271L29.724 -67.5766ZM18.55 -68.2962C11.9323 -68.2962 5.20766 -67.5352 -1.48305 -65.9311L34.4207 83.8251C29.0822 85.105 23.7451 85.7038 18.55 85.7038V-68.2962ZM-1.46466 -65.9355C-8.32819 -64.2918 -15.2395 -61.7373 -21.9435 -58.126L51.0905 77.4544C45.5598 80.4336 39.9121 82.51 34.4023 83.8295L-1.46466 -65.9355ZM91.5735 15.7564V14.6745H-62.4265V15.7564H91.5735ZM51.0579 82.4822C44.6002 85.9568 38.3256 88.0421 32.7828 89.2443L0.139357 -61.2562C-6.7953 -59.752 -14.3283 -57.2131 -21.9109 -53.1333L51.0579 82.4822ZM32.9363 89.2109C28.3435 90.2169 23.5176 90.7654 18.55 90.7654V-63.2346C12.1891 -63.2346 5.97058 -62.5336 -0.0141215 -61.2227L32.9363 89.2109ZM18.55 90.7654C15.6243 90.7654 12.3979 90.5755 8.93582 90.0858L30.5028 -62.3966C26.2941 -62.9918 22.2883 -63.2346 18.55 -63.2346V90.7654ZM8.80799 90.0676C6.54156 89.7432 4.49204 89.3297 2.68012 88.889L39.0729 -60.7491C36.466 -61.3831 33.645 -61.9468 30.6306 -62.3784L8.80799 90.0676ZM-56.1235 14.0699V15.0827H97.8765V14.0699H-56.1235ZM44.595 -58.1733C40.2014 -59.5958 35.2748 -60.792 29.8771 -61.5078L9.63193 91.1557C4.96318 90.5365 0.784522 89.5128 -2.84196 88.3386L44.595 -58.1733ZM29.724 -61.528C25.4957 -62.0801 21.7074 -62.2475 18.55 -62.2475V91.7525C16.2696 91.7525 13.2844 91.6327 9.78503 91.1758L29.724 -61.528ZM18.55 -62.2475C11.4883 -62.2475 4.34197 -61.3745 -2.72141 -59.5568L35.659 89.5839C29.9479 91.0536 24.189 91.7525 18.55 91.7525V-62.2475ZM-2.77873 -59.542C-9.32887 -57.851 -15.9268 -55.3221 -22.3411 -51.8181L51.4881 83.3308C46.2471 86.1939 40.9127 88.2276 35.7163 89.5691L-2.77873 -59.542ZM91.5735 12.7315V11.6507H-62.4265V12.7315H91.5735ZM49.7693 80.1361C44.2903 82.9519 38.7101 84.8987 33.2668 86.1153L-0.322577 -64.1769C-7.11674 -62.6585 -13.9626 -60.2573 -20.6223 -56.8347L49.7693 80.1361ZM33.363 86.0937C28.3425 87.2225 23.3645 87.7416 18.55 87.7416V-66.2584C12.3143 -66.2584 5.951 -65.5875 -0.418806 -64.1554L33.363 86.0937ZM18.55 87.7416C15.6715 87.7416 12.4954 87.5574 9.08478 87.0818L30.3538 -65.4424C26.1967 -66.0221 22.241 -66.2584 18.55 -66.2584V87.7416ZM8.80799 87.0427C6.49207 86.7112 4.39832 86.2864 2.54805 85.833L39.205 -63.7407C36.5597 -64.3889 33.6945 -64.9647 30.6306 -65.4033L8.80799 87.0427ZM-56.1235 11.0461V12.0578H97.8765V11.0461H-56.1235ZM44.595 -61.1982C40.1584 -62.6346 35.1801 -63.8393 29.724 -64.5517L9.78503 88.152C5.05786 87.5348 0.827565 86.5018 -2.84196 85.3137L44.595 -61.1982ZM29.8771 -64.5316C25.5908 -65.1 21.7503 -65.2724 18.55 -65.2724V88.7276C16.2268 88.7276 13.1893 88.6036 9.63193 88.1319L29.8771 -64.5316ZM18.55 -65.2724C11.3769 -65.2724 4.12581 -64.3701 -3.02858 -62.4975L35.9662 86.4837C30.1641 88.0024 24.3004 88.7276 18.55 88.7276V-65.2724ZM-2.93218 -62.5227C-9.26766 -60.8732 -15.6788 -58.4334 -21.9435 -55.0587L51.0905 80.5217C45.9991 83.2643 40.8515 85.2118 35.8698 86.5089L-2.93218 -62.5227ZM6.45 93.8539C1.37014 93.8539 -3.89693 93.2546 -9.19352 91.9477L27.6969 -57.5685C20.5861 -59.3229 13.4512 -60.1461 6.45 -60.1461V93.8539ZM-9.17947 91.9512C-15.7222 90.3382 -21.3557 87.9129 -26.0116 85.2746L49.9116 -48.7092C43.4737 -52.3573 36.0413 -55.5113 27.6829 -57.5719L-9.17947 91.9512ZM88.95 18.2827V7.33975H-65.05V18.2827H88.95ZM57.0948 -55.0377C49.2055 -60.7475 40.5457 -64.9696 31.5128 -67.6879L-12.8642 79.7797C-19.9846 77.637 -26.8939 74.2774 -33.1948 69.7172L57.0948 -55.0377ZM31.4758 -67.699C23.6133 -70.0607 15.1994 -71.3846 6.45 -71.3846V82.6154C-0.378046 82.6154 -6.87581 81.5785 -12.8272 79.7908L31.4758 -67.699ZM6.45 -71.3846C2.89508 -71.3846 -1.92783 -71.1843 -7.48568 -70.2923L16.9185 81.7617C12.3521 82.4946 8.68492 82.6154 6.45 82.6154V-71.3846ZM-7.59681 -70.2744C-13.8466 -69.2619 -19.0746 -67.6833 -22.9715 -66.2831L29.1043 78.6448C26.416 79.6108 22.2879 80.892 17.0296 81.7438L-7.59681 -70.2744ZM-21.4934 -66.7973C-31.566 -63.4075 -48.9603 -55.1503 -61.6339 -35.8743L67.0451 48.729C54.5123 67.7909 37.3585 75.8838 27.6262 79.1591L-21.4934 -66.7973ZM-61.7677 -35.67C-70.0035 -23.0567 -74.4 -8.31345 -74.4 6.78206H79.6C79.6 21.6203 75.2739 36.1271 67.1789 48.5247L-61.7677 -35.67ZM-74.4 6.78206V16.8372H79.6V6.78206H-74.4ZM-74.4 16.8372C-74.4 37.2221 -65.6715 64.4713 -39.3728 81.6933L44.9952 -47.1401C56.2191 -39.7899 65.7922 -29.2856 72.054 -16.2561C78.0566 -3.76615 79.6 8.04798 79.6 16.8372H-74.4ZM-39.4566 81.6384C-15.963 97.0672 11.4689 97.3595 33.022 88.3327L-26.469 -53.7125C-17.3668 -57.5246 -5.36087 -60.4478 8.55693 -59.4469C22.7358 -58.4273 35.1672 -53.5944 45.079 -47.0851L-39.4566 81.6384ZM28.2138 90.1601C23.5006 91.7735 19.4867 92.5932 16.6834 93.0359L-7.34297 -59.0783C-11.2008 -58.4689 -16.1438 -57.4285 -21.6608 -55.54L28.2138 90.1601ZM16.6997 93.0334C12.442 93.7068 8.91151 93.8539 6.45 93.8539V-60.1461C2.66849 -60.1461 -2.04857 -59.9157 -7.35929 -59.0757L16.6997 93.0334ZM51.0116 85.2746C46.3557 87.9129 40.7222 90.3382 34.1795 91.9512L-2.68287 -57.5719C-11.0413 -55.5113 -18.4737 -52.3573 -24.9116 -48.7092L51.0116 85.2746ZM34.1357 91.962C28.8567 93.2601 23.6094 93.855 18.55 93.855V-60.145C11.5693 -60.145 4.45413 -59.327 -2.63914 -57.5827L34.1357 91.962ZM18.55 93.855C16.1168 93.855 12.6224 93.711 8.40512 93.0499L32.2545 -59.0922C26.9841 -59.9184 22.3032 -60.145 18.55 -60.145V93.855ZM8.31663 93.0359C5.54804 92.5986 1.57616 91.7899 -3.09306 90.2003L46.5401 -55.5823C41.0671 -57.4456 36.1661 -58.4744 32.343 -59.0783L8.31663 93.0359ZM-8.28773 88.2197C13.266 97.3418 40.8271 97.1564 64.4566 81.6384L-20.079 -47.0851C-10.1222 -53.6239 2.3751 -58.4695 16.6267 -59.4602C30.6083 -60.4321 42.6426 -57.4497 51.7347 -53.6017L-8.28773 88.2197ZM64.61 81.5374C90.5926 64.3852 99.4 37.3585 99.4 16.8372H-54.6C-54.6 7.99911 -53.0396 -3.80211 -47.0541 -16.2566C-40.8205 -29.2272 -31.3217 -39.6636 -20.2324 -46.9841L64.61 81.5374ZM99.4 16.8372V6.78206H-54.6V16.8372H99.4ZM99.4 6.78206C99.4 -8.3426 94.9538 -24.06 85.3365 -37.7734L-40.7477 50.6504C-50.2242 37.1378 -54.6 21.6494 -54.6 6.78206H99.4ZM85.3365 -37.7734C73.7147 -54.345 58.9478 -61.8101 51.5705 -64.8864L-7.70112 77.2504C-14.7396 74.3153 -29.2667 67.0213 -40.7477 50.6504L85.3365 -37.7734ZM48.0235 -66.2637C44.0967 -67.6778 38.8116 -69.2759 32.4857 -70.2912L8.08152 81.7629C2.74707 80.9067 -1.4373 79.606 -4.15414 78.6276L48.0235 -66.2637ZM32.5968 -70.2733C26.9944 -71.1808 22.1326 -71.3846 18.55 -71.3846V82.6154C16.2874 82.6154 12.5814 82.4919 7.97039 81.7449L32.5968 -70.2733ZM18.55 -71.3846C9.80062 -71.3846 1.38666 -70.0607 -6.47582 -67.699L37.8272 79.7908C31.8758 81.5785 25.378 82.6154 18.55 82.6154V-71.3846ZM-6.51283 -67.6879C-15.5457 -64.9696 -24.2055 -60.7475 -32.0948 -55.0377L58.1948 69.7172C51.8939 74.2774 44.9846 77.637 37.8642 79.7797L-6.51283 -67.6879ZM-63.95 7.33975V18.2827H90.05V7.33975H-63.95ZM56.3657 -43.3835C49.3462 -48.2491 41.6216 -52.0976 33.3827 -54.7709L-14.1467 91.711C-20.3322 89.704 -26.1356 86.8088 -31.3657 83.1835L56.3657 -43.3835ZM33.4307 -54.7553C24.6724 -57.6035 15.5781 -59.0307 6.45 -59.0307V94.9693C-0.507386 94.9693 -7.4897 93.8759 -14.1947 91.6955L33.4307 -54.7553ZM6.45 -59.0307C1.48363 -59.0307 -3.55092 -58.6058 -8.59667 -57.7169L18.1219 93.9476C14.182 94.6417 10.2724 94.9693 6.45 94.9693V-59.0307ZM-8.61387 -57.7138C-14.659 -56.6474 -20.5229 -54.9364 -26.1209 -52.6356L32.4209 89.8033C27.8687 91.6743 23.0798 93.0731 18.1391 93.9446L-8.61387 -57.7138ZM-25.7221 -52.7982C-15.3642 -56.9877 -2.19857 -59.5991 12.4942 -57.6894C27.1379 -55.7861 39.0388 -49.947 47.757 -43.5111L-43.7054 80.3865C-22.1471 96.3011 6.42909 100.318 32.0221 89.9659L-25.7221 -52.7982ZM47.757 -43.5111C56.5731 -37.0029 64.9266 -27.8439 70.7758 -15.9075C76.5645 -4.09476 78.5 7.56921 78.5 17.3648H-75.5C-75.5 40.8904 -64.7994 64.8148 -43.7054 80.3865L47.757 -43.5111ZM78.5 17.3648V6.58464H-75.5V17.3648H78.5ZM78.5 6.58464C78.5 20.3809 74.7159 33.9005 67.6029 45.6624L-64.1739 -34.0301C-71.5729 -21.7953 -75.5 -7.76337 -75.5 6.58464H78.5ZM67.5472 45.7543C58.6 60.5026 44.8109 71.8614 28.4026 77.7697L-23.7702 -67.1234C-40.6947 -61.0292 -54.885 -49.3417 -64.1182 -34.122L67.5472 45.7543ZM33.7133 75.6312C28.8083 77.8216 23.676 79.4159 18.4418 80.3915L-9.77677 -71.0011C-16.4073 -69.7652 -22.8837 -67.7523 -29.0809 -64.9849L33.7133 75.6312ZM18.4418 80.3915C14.4647 81.1328 10.447 81.5 6.45 81.5V-72.5C1.02591 -72.5 -4.40344 -72.0027 -9.77677 -71.0011L18.4418 80.3915ZM6.45 81.5C-0.0860484 81.5 -6.65979 80.5277 -13.0119 78.576L32.2171 -68.6324C23.8175 -71.2132 15.142 -72.5 6.45 -72.5V81.5ZM-12.9971 78.5806C-19.1206 76.7005 -24.8377 73.9672 -29.9821 70.5642L54.9821 -57.8768C48.0234 -62.4799 40.3747 -66.1279 32.2023 -68.637L-12.9971 78.5806ZM54.9821 70.5642C49.8377 73.9672 44.1206 76.7005 37.9971 78.5806L-7.20228 -68.637C-15.3747 -66.1279 -23.0234 -62.4799 -29.9821 -57.8768L54.9821 70.5642ZM37.9971 78.5806C31.6602 80.5262 25.0921 81.5 18.55 81.5V-72.5C9.85341 -72.5 1.18355 -71.2116 -7.20228 -68.637L37.9971 78.5806ZM18.55 81.5C14.553 81.5 10.5353 81.1328 6.55823 80.3915L34.7768 -71.0011C29.4034 -72.0026 23.9741 -72.5 18.55 -72.5V81.5ZM6.55823 80.3915C1.32398 79.4159 -3.80826 77.8216 -8.71331 75.6312L54.0809 -64.9849C47.8837 -67.7523 41.4073 -69.7652 34.7768 -71.0011L6.55823 80.3915ZM-3.40258 77.7697C-19.8108 71.8615 -33.5999 60.5027 -42.5472 45.7543L89.1182 -34.122C79.8849 -49.3418 65.6946 -61.0293 48.7702 -67.1234L-3.40258 77.7697ZM-42.6029 45.6624C-49.7159 33.9005 -53.5 20.3809 -53.5 6.58464H100.5C100.5 -7.76332 96.5729 -21.7952 89.1739 -34.0301L-42.6029 45.6624ZM-53.5 6.58464V17.3648H100.5V6.58464H-53.5ZM-53.5 17.3648C-53.5 6.70989 -51.2083 -6.0038 -44.3884 -18.6282C-37.5437 -31.2983 -28.0526 -40.3311 -18.7832 -46.3056L64.648 83.1365C87.3962 68.4742 100.5 43.5397 100.5 17.3648H-53.5ZM-18.9053 -46.2267C-10.0641 -51.9489 1.2231 -56.5979 14.438 -57.9622C27.6163 -59.3227 39.4618 -57.0826 49.021 -53.4582L-5.57619 90.5389C17.4174 99.257 43.5262 96.8071 64.7701 83.0576L-18.9053 -46.2267ZM49.9788 -53.0877C44.5508 -55.229 38.8419 -56.8352 32.9245 -57.8297L7.40074 94.0404C2.5452 93.2244 -2.12382 91.9082 -6.53396 90.1684L49.9788 -53.0877ZM33.1312 -57.7947C28.2725 -58.6249 23.3957 -59.0307 18.55 -59.0307V94.9693C14.7926 94.9693 10.9909 94.6541 7.19403 94.0054L33.1312 -57.7947ZM18.55 -59.0307C9.42195 -59.0307 0.327635 -57.6035 -8.4307 -54.7553L39.1947 91.6955C32.4897 93.8759 25.5074 94.9693 18.55 94.9693V-59.0307ZM-8.38272 -54.7709C-16.6216 -52.0976 -24.3462 -48.2491 -31.3657 -43.3835L56.3657 83.1835C51.1356 86.8088 45.3322 89.704 39.1467 91.711L-8.38272 -54.7709Z" fill="white" mask="url(#path-1-inside-1_464_854)"/>
</svg>
